# xmcd CD database file
#
# Track frame offsets:
#	187
#	25205
#	55210
#	76075
#	104317
#	140797
#	170137
#
# Disc length: 2808 seconds
#
# Revision: 0
# Processed by: cddbd v1.4PL0 Copyright (c) Steve Scherf et al.
# Submitted via: CDex 1.50Beta6
#
DISCID=5a0af607
DTITLE=Ray Brown - This is Ray Brown
DYEAR=1958
DGENRE=Jazz
TTITLE0=Bric a Bric
TTITLE1=Upstairs Blues
TTITLE2=Indiana
TTITLE3=The Nearness of You
TTITLE4=Take the A Train
TTITLE5=Cool Walk
TTITLE6=Jim
EXTD=YEAR: 1958
EXTT0=
EXTT1=
EXTT2=
EXTT3=
EXTT4=
EXTT5=
EXTT6=
PLAYORDER=
